<mxfile host="Electron" modified="2024-07-14T18:10:40.466Z" agent="Mozilla/5.0 (Windows NT 10.0; Win64; x64) AppleWebKit/537.36 (KHTML, like Gecko) draw.io/24.6.4 Chrome/124.0.6367.207 Electron/30.0.6 Safari/537.36" etag="Nd3XPl93rob0Lo8zcPIM" version="24.6.4" type="device">
  <diagram name="Page-1" id="h5dAWVvavbUfdj-u1ln9">
    <mxGraphModel dx="1219" dy="713" grid="1" gridSize="10" guides="1" tooltips="1" connect="1" arrows="1" fold="1" page="1" pageScale="1" pageWidth="850" pageHeight="1100" math="0" shadow="0">
      <root>
        <mxCell id="0" />
        <mxCell id="1" parent="0" />
        <mxCell id="0SpFUCY6vRyzWf0K6KB3-22" value="" style="group;rotation=90;" vertex="1" connectable="0" parent="1">
          <mxGeometry x="410" y="40" width="70" height="20" as="geometry" />
        </mxCell>
        <mxCell id="0SpFUCY6vRyzWf0K6KB3-16" value="" style="shape=waypoint;sketch=0;size=6;pointerEvents=1;points=[];fillColor=none;resizable=0;rotatable=0;perimeter=centerPerimeter;snapToPoint=1;rotation=90;" vertex="1" parent="0SpFUCY6vRyzWf0K6KB3-22">
          <mxGeometry x="25" y="-25" width="20" height="20" as="geometry" />
        </mxCell>
        <mxCell id="0SpFUCY6vRyzWf0K6KB3-17" value="" style="shape=waypoint;sketch=0;size=6;pointerEvents=1;points=[];fillColor=none;resizable=0;rotatable=0;perimeter=centerPerimeter;snapToPoint=1;rotation=90;" vertex="1" parent="0SpFUCY6vRyzWf0K6KB3-22">
          <mxGeometry x="25" y="-15" width="20" height="20" as="geometry" />
        </mxCell>
        <mxCell id="0SpFUCY6vRyzWf0K6KB3-18" value="" style="shape=waypoint;sketch=0;size=6;pointerEvents=1;points=[];fillColor=none;resizable=0;rotatable=0;perimeter=centerPerimeter;snapToPoint=1;rotation=90;" vertex="1" parent="0SpFUCY6vRyzWf0K6KB3-22">
          <mxGeometry x="25" y="-5" width="20" height="20" as="geometry" />
        </mxCell>
        <mxCell id="0SpFUCY6vRyzWf0K6KB3-19" value="" style="shape=waypoint;sketch=0;size=6;pointerEvents=1;points=[];fillColor=none;resizable=0;rotatable=0;perimeter=centerPerimeter;snapToPoint=1;rotation=90;" vertex="1" parent="0SpFUCY6vRyzWf0K6KB3-22">
          <mxGeometry x="25" y="5" width="20" height="20" as="geometry" />
        </mxCell>
        <mxCell id="0SpFUCY6vRyzWf0K6KB3-20" value="" style="shape=waypoint;sketch=0;size=6;pointerEvents=1;points=[];fillColor=none;resizable=0;rotatable=0;perimeter=centerPerimeter;snapToPoint=1;rotation=90;" vertex="1" parent="0SpFUCY6vRyzWf0K6KB3-22">
          <mxGeometry x="25" y="15" width="20" height="20" as="geometry" />
        </mxCell>
        <mxCell id="0SpFUCY6vRyzWf0K6KB3-21" value="" style="shape=waypoint;sketch=0;size=6;pointerEvents=1;points=[];fillColor=none;resizable=0;rotatable=0;perimeter=centerPerimeter;snapToPoint=1;rotation=90;" vertex="1" parent="0SpFUCY6vRyzWf0K6KB3-22">
          <mxGeometry x="25" y="25" width="20" height="20" as="geometry" />
        </mxCell>
        <mxCell id="0SpFUCY6vRyzWf0K6KB3-25" value="" style="endArrow=none;html=1;rounded=0;fillColor=#dae8fc;strokeColor=#6c8ebf;" edge="1" parent="1">
          <mxGeometry width="50" height="50" relative="1" as="geometry">
            <mxPoint x="120" y="320" as="sourcePoint" />
            <mxPoint x="120" y="40" as="targetPoint" />
          </mxGeometry>
        </mxCell>
        <mxCell id="0SpFUCY6vRyzWf0K6KB3-26" value="" style="endArrow=none;html=1;rounded=0;fillColor=#dae8fc;strokeColor=#6c8ebf;" edge="1" parent="1">
          <mxGeometry width="50" height="50" relative="1" as="geometry">
            <mxPoint x="120" y="320" as="sourcePoint" />
            <mxPoint x="600" y="320" as="targetPoint" />
          </mxGeometry>
        </mxCell>
        <mxCell id="0SpFUCY6vRyzWf0K6KB3-34" value="" style="group" vertex="1" connectable="0" parent="1">
          <mxGeometry x="140" y="340" width="250" height="100" as="geometry" />
        </mxCell>
        <mxCell id="0SpFUCY6vRyzWf0K6KB3-30" value="Replicas: 3" style="rounded=1;whiteSpace=wrap;html=1;align=left;verticalAlign=top;spacingTop=0;spacing=2;spacingLeft=6;fontSize=15;fillColor=#f5f5f5;fontColor=#333333;strokeColor=#666666;" vertex="1" parent="0SpFUCY6vRyzWf0K6KB3-34">
          <mxGeometry width="250" height="100" as="geometry" />
        </mxCell>
        <mxCell id="0SpFUCY6vRyzWf0K6KB3-31" value="Pod" style="rounded=1;whiteSpace=wrap;html=1;fontSize=15;fillColor=#dae8fc;strokeColor=#6c8ebf;" vertex="1" parent="0SpFUCY6vRyzWf0K6KB3-34">
          <mxGeometry x="100" y="40" width="60" height="50" as="geometry" />
        </mxCell>
        <mxCell id="0SpFUCY6vRyzWf0K6KB3-32" value="Pod" style="rounded=1;whiteSpace=wrap;html=1;fontSize=15;fillColor=#dae8fc;strokeColor=#6c8ebf;" vertex="1" parent="0SpFUCY6vRyzWf0K6KB3-34">
          <mxGeometry x="20" y="40" width="60" height="50" as="geometry" />
        </mxCell>
        <mxCell id="0SpFUCY6vRyzWf0K6KB3-33" value="Pod" style="rounded=1;whiteSpace=wrap;html=1;fontSize=15;fillColor=#dae8fc;strokeColor=#6c8ebf;" vertex="1" parent="0SpFUCY6vRyzWf0K6KB3-34">
          <mxGeometry x="180" y="40" width="60" height="50" as="geometry" />
        </mxCell>
        <mxCell id="0SpFUCY6vRyzWf0K6KB3-35" value="" style="group" vertex="1" connectable="0" parent="1">
          <mxGeometry x="140" y="460" width="170" height="100" as="geometry" />
        </mxCell>
        <mxCell id="0SpFUCY6vRyzWf0K6KB3-7" value="Replicas: 2" style="rounded=1;whiteSpace=wrap;html=1;align=left;verticalAlign=top;spacingTop=0;spacing=2;spacingLeft=6;fontSize=15;fillColor=#f5f5f5;fontColor=#333333;strokeColor=#666666;" vertex="1" parent="0SpFUCY6vRyzWf0K6KB3-35">
          <mxGeometry width="170" height="100" as="geometry" />
        </mxCell>
        <mxCell id="0SpFUCY6vRyzWf0K6KB3-8" value="Pod" style="rounded=1;whiteSpace=wrap;html=1;fontSize=15;fillColor=#dae8fc;strokeColor=#6c8ebf;" vertex="1" parent="0SpFUCY6vRyzWf0K6KB3-35">
          <mxGeometry x="100" y="40" width="60" height="50" as="geometry" />
        </mxCell>
        <mxCell id="0SpFUCY6vRyzWf0K6KB3-9" value="Pod" style="rounded=1;whiteSpace=wrap;html=1;fontSize=15;fillColor=#dae8fc;strokeColor=#6c8ebf;" vertex="1" parent="0SpFUCY6vRyzWf0K6KB3-35">
          <mxGeometry x="20" y="40" width="60" height="50" as="geometry" />
        </mxCell>
        <mxCell id="0SpFUCY6vRyzWf0K6KB3-36" value="" style="group" vertex="1" connectable="0" parent="1">
          <mxGeometry x="140" y="580" width="90" height="100" as="geometry" />
        </mxCell>
        <mxCell id="0SpFUCY6vRyzWf0K6KB3-4" value="Replicas: 1" style="rounded=1;whiteSpace=wrap;html=1;align=left;verticalAlign=top;spacingTop=0;spacing=2;spacingLeft=6;fontSize=15;fillColor=#f5f5f5;fontColor=#333333;strokeColor=#666666;" vertex="1" parent="0SpFUCY6vRyzWf0K6KB3-36">
          <mxGeometry width="90" height="100" as="geometry" />
        </mxCell>
        <mxCell id="0SpFUCY6vRyzWf0K6KB3-5" value="Pod" style="rounded=1;whiteSpace=wrap;html=1;fontSize=15;fillColor=#dae8fc;strokeColor=#6c8ebf;" vertex="1" parent="0SpFUCY6vRyzWf0K6KB3-36">
          <mxGeometry x="20" y="40" width="60" height="50" as="geometry" />
        </mxCell>
        <mxCell id="0SpFUCY6vRyzWf0K6KB3-38" value="" style="endArrow=none;dashed=1;html=1;rounded=0;" edge="1" parent="1">
          <mxGeometry width="50" height="50" relative="1" as="geometry">
            <mxPoint x="230" y="700" as="sourcePoint" />
            <mxPoint x="230" y="680" as="targetPoint" />
          </mxGeometry>
        </mxCell>
        <mxCell id="0SpFUCY6vRyzWf0K6KB3-39" value="" style="endArrow=none;dashed=1;html=1;rounded=0;entryX=1;entryY=1;entryDx=0;entryDy=0;" edge="1" parent="1" target="0SpFUCY6vRyzWf0K6KB3-7">
          <mxGeometry width="50" height="50" relative="1" as="geometry">
            <mxPoint x="310" y="700" as="sourcePoint" />
            <mxPoint x="240" y="690" as="targetPoint" />
          </mxGeometry>
        </mxCell>
        <mxCell id="0SpFUCY6vRyzWf0K6KB3-40" value="" style="endArrow=none;dashed=1;html=1;rounded=0;" edge="1" parent="1">
          <mxGeometry width="50" height="50" relative="1" as="geometry">
            <mxPoint x="390" y="700" as="sourcePoint" />
            <mxPoint x="390" y="440" as="targetPoint" />
          </mxGeometry>
        </mxCell>
        <mxCell id="0SpFUCY6vRyzWf0K6KB3-41" value="" style="shape=flexArrow;endArrow=classic;html=1;rounded=0;fillColor=#dae8fc;strokeColor=#6c8ebf;" edge="1" parent="1">
          <mxGeometry width="50" height="50" relative="1" as="geometry">
            <mxPoint x="140" y="710" as="sourcePoint" />
            <mxPoint x="540" y="710" as="targetPoint" />
          </mxGeometry>
        </mxCell>
        <mxCell id="0SpFUCY6vRyzWf0K6KB3-42" value="" style="group" vertex="1" connectable="0" parent="1">
          <mxGeometry x="430" y="540" width="70" height="20" as="geometry" />
        </mxCell>
        <mxCell id="0SpFUCY6vRyzWf0K6KB3-43" value="" style="shape=waypoint;sketch=0;size=6;pointerEvents=1;points=[];fillColor=none;resizable=0;rotatable=0;perimeter=centerPerimeter;snapToPoint=1;" vertex="1" parent="0SpFUCY6vRyzWf0K6KB3-42">
          <mxGeometry width="20" height="20" as="geometry" />
        </mxCell>
        <mxCell id="0SpFUCY6vRyzWf0K6KB3-44" value="" style="shape=waypoint;sketch=0;size=6;pointerEvents=1;points=[];fillColor=none;resizable=0;rotatable=0;perimeter=centerPerimeter;snapToPoint=1;" vertex="1" parent="0SpFUCY6vRyzWf0K6KB3-42">
          <mxGeometry x="10" width="20" height="20" as="geometry" />
        </mxCell>
        <mxCell id="0SpFUCY6vRyzWf0K6KB3-45" value="" style="shape=waypoint;sketch=0;size=6;pointerEvents=1;points=[];fillColor=none;resizable=0;rotatable=0;perimeter=centerPerimeter;snapToPoint=1;" vertex="1" parent="0SpFUCY6vRyzWf0K6KB3-42">
          <mxGeometry x="20" width="20" height="20" as="geometry" />
        </mxCell>
        <mxCell id="0SpFUCY6vRyzWf0K6KB3-46" value="" style="shape=waypoint;sketch=0;size=6;pointerEvents=1;points=[];fillColor=none;resizable=0;rotatable=0;perimeter=centerPerimeter;snapToPoint=1;" vertex="1" parent="0SpFUCY6vRyzWf0K6KB3-42">
          <mxGeometry x="30" width="20" height="20" as="geometry" />
        </mxCell>
        <mxCell id="0SpFUCY6vRyzWf0K6KB3-47" value="" style="shape=waypoint;sketch=0;size=6;pointerEvents=1;points=[];fillColor=none;resizable=0;rotatable=0;perimeter=centerPerimeter;snapToPoint=1;" vertex="1" parent="0SpFUCY6vRyzWf0K6KB3-42">
          <mxGeometry x="40" width="20" height="20" as="geometry" />
        </mxCell>
        <mxCell id="0SpFUCY6vRyzWf0K6KB3-48" value="" style="shape=waypoint;sketch=0;size=6;pointerEvents=1;points=[];fillColor=none;resizable=0;rotatable=0;perimeter=centerPerimeter;snapToPoint=1;" vertex="1" parent="0SpFUCY6vRyzWf0K6KB3-42">
          <mxGeometry x="50" width="20" height="20" as="geometry" />
        </mxCell>
        <mxCell id="0SpFUCY6vRyzWf0K6KB3-49" value="&lt;font style=&quot;font-size: 15px;&quot;&gt;Horizontal Scaling&lt;/font&gt;" style="text;html=1;align=center;verticalAlign=middle;resizable=0;points=[];autosize=1;strokeColor=none;fillColor=none;fontSize=15;strokeWidth=1;fontStyle=1" vertex="1" parent="1">
          <mxGeometry x="430" y="580" width="140" height="30" as="geometry" />
        </mxCell>
        <mxCell id="0SpFUCY6vRyzWf0K6KB3-62" value="" style="group;fillColor=#dae8fc;strokeColor=#6c8ebf;rounded=1;" vertex="1" connectable="0" parent="1">
          <mxGeometry x="440" y="200" width="130" height="100" as="geometry" />
        </mxCell>
        <mxCell id="0SpFUCY6vRyzWf0K6KB3-10" value="Pod" style="rounded=1;whiteSpace=wrap;html=1;align=left;verticalAlign=top;spacingTop=0;spacing=2;spacingLeft=6;fontSize=15;fillColor=#dae8fc;strokeColor=#6c8ebf;" vertex="1" parent="0SpFUCY6vRyzWf0K6KB3-62">
          <mxGeometry width="130" height="100" as="geometry" />
        </mxCell>
        <mxCell id="0SpFUCY6vRyzWf0K6KB3-50" value="&lt;font style=&quot;font-size: 15px;&quot;&gt;RAM:&lt;/font&gt;&lt;div&gt;&lt;font style=&quot;font-size: 15px;&quot;&gt;0.5Gi&lt;/font&gt;&lt;/div&gt;" style="rounded=0;whiteSpace=wrap;html=1;fillColor=#d5e8d4;strokeColor=#82b366;" vertex="1" parent="0SpFUCY6vRyzWf0K6KB3-62">
          <mxGeometry x="20" y="30" width="50" height="60" as="geometry" />
        </mxCell>
        <mxCell id="0SpFUCY6vRyzWf0K6KB3-51" value="CPU&lt;div&gt;Core&lt;/div&gt;" style="rounded=1;whiteSpace=wrap;html=1;fillColor=#ffe6cc;strokeColor=#d79b00;" vertex="1" parent="0SpFUCY6vRyzWf0K6KB3-62">
          <mxGeometry x="80" y="40" width="40" height="40" as="geometry" />
        </mxCell>
        <mxCell id="0SpFUCY6vRyzWf0K6KB3-63" value="" style="group;fillColor=#dae8fc;strokeColor=#6c8ebf;rounded=1;" vertex="1" connectable="0" parent="1">
          <mxGeometry x="290" y="150" width="130" height="150" as="geometry" />
        </mxCell>
        <mxCell id="0SpFUCY6vRyzWf0K6KB3-52" value="Pod" style="rounded=1;whiteSpace=wrap;html=1;align=left;verticalAlign=top;spacingTop=0;spacing=2;spacingLeft=6;fontSize=15;fillColor=#dae8fc;strokeColor=#6c8ebf;" vertex="1" parent="0SpFUCY6vRyzWf0K6KB3-63">
          <mxGeometry width="130" height="150" as="geometry" />
        </mxCell>
        <mxCell id="0SpFUCY6vRyzWf0K6KB3-53" value="&lt;font style=&quot;font-size: 15px;&quot;&gt;RAM:&lt;/font&gt;&lt;div&gt;&lt;font style=&quot;font-size: 15px;&quot;&gt;1Gi&lt;/font&gt;&lt;/div&gt;" style="rounded=0;whiteSpace=wrap;html=1;fillColor=#d5e8d4;strokeColor=#82b366;" vertex="1" parent="0SpFUCY6vRyzWf0K6KB3-63">
          <mxGeometry x="20" y="30" width="50" height="110" as="geometry" />
        </mxCell>
        <mxCell id="0SpFUCY6vRyzWf0K6KB3-54" value="CPU&lt;div&gt;Core&lt;/div&gt;" style="rounded=1;whiteSpace=wrap;html=1;fillColor=#ffe6cc;strokeColor=#d79b00;" vertex="1" parent="0SpFUCY6vRyzWf0K6KB3-63">
          <mxGeometry x="80" y="90" width="40" height="40" as="geometry" />
        </mxCell>
        <mxCell id="0SpFUCY6vRyzWf0K6KB3-55" value="CPU&lt;div&gt;Core&lt;/div&gt;" style="rounded=1;whiteSpace=wrap;html=1;fillColor=#ffe6cc;strokeColor=#d79b00;" vertex="1" parent="0SpFUCY6vRyzWf0K6KB3-63">
          <mxGeometry x="80" y="40" width="40" height="40" as="geometry" />
        </mxCell>
        <mxCell id="0SpFUCY6vRyzWf0K6KB3-64" value="" style="group;rounded=1;" vertex="1" connectable="0" parent="1">
          <mxGeometry x="140" y="100" width="130" height="200" as="geometry" />
        </mxCell>
        <mxCell id="0SpFUCY6vRyzWf0K6KB3-56" value="Pod" style="rounded=1;whiteSpace=wrap;html=1;align=left;verticalAlign=top;spacingTop=0;spacing=2;spacingLeft=6;fontSize=15;fillColor=#dae8fc;strokeColor=#6c8ebf;" vertex="1" parent="0SpFUCY6vRyzWf0K6KB3-64">
          <mxGeometry width="130" height="200" as="geometry" />
        </mxCell>
        <mxCell id="0SpFUCY6vRyzWf0K6KB3-57" value="&lt;font style=&quot;font-size: 15px;&quot;&gt;RAM:&lt;/font&gt;&lt;div&gt;&lt;font style=&quot;font-size: 15px;&quot;&gt;1.5Gi&lt;/font&gt;&lt;/div&gt;" style="rounded=0;whiteSpace=wrap;html=1;fillColor=#d5e8d4;strokeColor=#82b366;" vertex="1" parent="0SpFUCY6vRyzWf0K6KB3-64">
          <mxGeometry x="20" y="30" width="50" height="160" as="geometry" />
        </mxCell>
        <mxCell id="0SpFUCY6vRyzWf0K6KB3-58" value="CPU&lt;div&gt;Core&lt;/div&gt;" style="rounded=1;whiteSpace=wrap;html=1;fillColor=#ffe6cc;strokeColor=#d79b00;" vertex="1" parent="0SpFUCY6vRyzWf0K6KB3-64">
          <mxGeometry x="80" y="140" width="40" height="40" as="geometry" />
        </mxCell>
        <mxCell id="0SpFUCY6vRyzWf0K6KB3-59" value="CPU&lt;div&gt;Core&lt;/div&gt;" style="rounded=1;whiteSpace=wrap;html=1;fillColor=#ffe6cc;strokeColor=#d79b00;" vertex="1" parent="0SpFUCY6vRyzWf0K6KB3-64">
          <mxGeometry x="80" y="90" width="40" height="40" as="geometry" />
        </mxCell>
        <mxCell id="0SpFUCY6vRyzWf0K6KB3-60" value="CPU&lt;div&gt;Core&lt;/div&gt;" style="rounded=1;whiteSpace=wrap;html=1;fillColor=#ffe6cc;strokeColor=#d79b00;" vertex="1" parent="0SpFUCY6vRyzWf0K6KB3-64">
          <mxGeometry x="80" y="40" width="40" height="40" as="geometry" />
        </mxCell>
        <mxCell id="0SpFUCY6vRyzWf0K6KB3-65" value="" style="endArrow=none;dashed=1;html=1;rounded=0;" edge="1" parent="1">
          <mxGeometry width="50" height="50" relative="1" as="geometry">
            <mxPoint x="270" y="100" as="sourcePoint" />
            <mxPoint x="640" y="100" as="targetPoint" />
          </mxGeometry>
        </mxCell>
        <mxCell id="0SpFUCY6vRyzWf0K6KB3-66" value="" style="endArrow=none;dashed=1;html=1;rounded=0;exitX=1;exitY=0;exitDx=0;exitDy=0;" edge="1" parent="1" source="0SpFUCY6vRyzWf0K6KB3-52">
          <mxGeometry width="50" height="50" relative="1" as="geometry">
            <mxPoint x="390" y="140" as="sourcePoint" />
            <mxPoint x="640" y="150" as="targetPoint" />
          </mxGeometry>
        </mxCell>
        <mxCell id="0SpFUCY6vRyzWf0K6KB3-67" value="" style="endArrow=none;dashed=1;html=1;rounded=0;" edge="1" parent="1">
          <mxGeometry width="50" height="50" relative="1" as="geometry">
            <mxPoint x="570" y="200" as="sourcePoint" />
            <mxPoint x="640" y="200" as="targetPoint" />
          </mxGeometry>
        </mxCell>
        <mxCell id="0SpFUCY6vRyzWf0K6KB3-68" value="" style="shape=flexArrow;endArrow=classic;html=1;rounded=0;fillColor=#dae8fc;strokeColor=#6c8ebf;" edge="1" parent="1">
          <mxGeometry width="50" height="50" relative="1" as="geometry">
            <mxPoint x="650" y="310" as="sourcePoint" />
            <mxPoint x="650" y="30" as="targetPoint" />
          </mxGeometry>
        </mxCell>
        <mxCell id="0SpFUCY6vRyzWf0K6KB3-69" value="&lt;font style=&quot;font-size: 15px;&quot;&gt;Vertical Scaling&lt;/font&gt;" style="text;html=1;align=center;verticalAlign=middle;resizable=0;points=[];autosize=1;strokeColor=none;fillColor=none;fontStyle=1;fontSize=15;" vertex="1" parent="1">
          <mxGeometry x="470" y="30" width="130" height="30" as="geometry" />
        </mxCell>
      </root>
    </mxGraphModel>
  </diagram>
</mxfile>
